<?xml version="1.0" encoding="utf-8"?>
<!-- Generator: Adobe Illustrator 25.0.0, SVG Export Plug-In . SVG Version: 6.00 Build 0)  -->
<svg version="1.1" id="Layer_1" xmlns="http://www.w3.org/2000/svg" xmlns:xlink="http://www.w3.org/1999/xlink" x="0px" y="0px"
	 viewBox="0 0 80 80" style="enable-background:new 0 0 80 80;" xml:space="preserve">
<style type="text/css">
	.st0{fill:#29ABE2;stroke:#000000;stroke-width:2.5714;stroke-linecap:round;stroke-linejoin:round;stroke-miterlimit:10;}
	.st1{fill:none;stroke:#000000;stroke-width:2.5714;stroke-linecap:round;stroke-linejoin:round;stroke-miterlimit:10;}
</style>
<g>
	<polyline class="st0" points="27.2,20 27.2,62 32.6,62 32.6,70.6 50.2,70.6 50.2,62 55.4,62 55.4,20 	"/>
	<line class="st1" x1="23.8" y1="20" x2="59" y2="20"/>
	<polyline class="st0" points="23.8,20 23.7,19.8 23.6,19.5 23.6,19.4 23.5,19.1 23.4,18.9 23.4,18.8 23.3,18.6 23.3,18.3 
		23.3,18.2 23.2,18 23.2,17.8 23.2,17.6 23.3,17.5 23.3,17.3 23.3,17.1 23.4,17 23.4,16.9 23.5,16.7 23.5,16.5 23.6,16.4 23.6,16.3 
		23.7,16.1 23.8,15.9 23.9,15.8 24,15.7 24.1,15.6 24.2,15.4 24.3,15.3 24.4,15.2 24.6,15.1 24.7,14.9 24.8,14.8 25,14.7 25.2,14.6 
		25.3,14.5 25.4,14.4 25.9,14.1 26.2,14 26.6,13.8 27,13.5 27.4,13.4 27.8,13.2 28.3,13 28.7,12.8 29.2,12.7 29.6,12.5 30.2,12.3 
		30.7,12.2 31.2,12.1 31.7,11.9 32.3,11.8 32.8,11.6 33.3,11.6 33.9,11.4 34.5,11.3 35,11.2 35.6,11.1 36.2,11 36.8,11 37.4,10.9 
		38,10.8 38.6,10.8 39.2,10.7 39.8,10.7 40.4,10.6 41,10.6 41.7,10.6 42.3,10.6 42.9,10.6 43.5,10.6 44.1,10.7 44.7,10.7 45.3,10.8 
		45.9,10.8 46.5,10.9 47.1,11 47.7,11 48.2,11 48.8,11.1 49.4,11.3 50,11.4 50.5,11.5 51,11.6 51.5,11.7 52,11.8 52.5,12 53,12.1 
		53.5,12.2 53.9,12.3 54.3,12.5 54.8,12.7 55.2,12.8 55.6,12.9 56,13.1 56.3,13.3 56.6,13.4 56.9,13.5 57.2,13.7 57.5,13.9 57.8,14 
		58,14.2 58.2,14.3 58.4,14.5 58.6,14.6 58.8,14.8 59,15 59,15.2 59.2,15.3 59.3,15.4 59.5,15.6 59.6,15.8 59.6,15.9 59.6,16.1 
		59.7,16.3 59.8,16.4 59.8,16.5 59.8,16.7 59.9,16.9 59.9,17 59.9,17.2 59.9,17.4 59.8,17.6 59.8,17.7 59.8,17.8 59.7,18.2 
		59.6,18.4 59.6,18.8 59.5,19 59.4,19.1 59.3,19.2 59.3,19.4 59.2,19.4 59.2,19.5 59.1,19.6 59.1,19.7 59,19.8 59,19.8 59,19.9 
		59,19.9 59,20 59,20 59,20 	"/>
</g>
</svg>
